<svg xmlns="http://www.w3.org/2000/svg" width="129" height="36" fill="none"><path fill="#000" d="M1.49 12.8c.35-.09.74-.14 1.15-.17.4-.03.81-.04 1.21-.04.43 0 .87.04 1.3.12.45.09.86.24 1.22.47.37.22.66.53.89.92.23.4.35.9.35 1.5s-.11 1.1-.33 1.51c-.21.41-.5.75-.85 1-.35.26-.76.44-1.22.55-.45.12-.93.17-1.41.17H3.22l-.33-.03-.24-.02v3.72H1.5v-9.7Zm2.4.8-.7.01c-.23 0-.4.03-.54.07v4.06c.05.02.12.03.22.04.1 0 .21 0 .33.02h.54c.32 0 .63-.03.94-.09.32-.06.6-.18.85-.33.26-.16.46-.39.6-.68.17-.29.24-.65.24-1.1 0-.38-.07-.7-.22-.95a1.59 1.59 0 0 0-.57-.62c-.24-.16-.5-.27-.8-.34-.3-.06-.6-.1-.9-.1Zm9.2 6.18H9.46l-.98 2.72H7.34l3.71-9.95h.53l3.73 9.95h-1.22l-1-2.72Zm-3.24-1h2.88l-1.09-2.99-.35-1.48h-.01l-.35 1.51-1.08 2.96Zm7.52-.91v-.98h.52c.13 0 .25 0 .37-.02l.37-.01.29-.04c.24-.04.47-.1.69-.19.21-.09.4-.2.56-.35.15-.14.28-.3.37-.49a1.71 1.71 0 0 0-.01-1.39 1.53 1.53 0 0 0-1.06-.76 3.23 3.23 0 0 0-.76-.07 6.35 6.35 0 0 0-2.14.36l-.31-.92a7.3 7.3 0 0 1 2.65-.48c.37 0 .73.04 1.09.13.36.07.68.2.96.39.3.18.52.42.69.74.18.31.27.7.27 1.15 0 .47-.16.91-.47 1.34-.3.42-.77.73-1.38.91v.06c.66.1 1.18.34 1.57.74.38.4.57.94.57 1.61a2.84 2.84 0 0 1-1.15 2.34c-.33.25-.73.44-1.17.56-.44.11-.9.17-1.35.17-.61 0-1.12-.04-1.52-.11-.4-.07-.72-.15-.98-.26l.29-1.05c.21.1.51.2.9.27s.86.11 1.41.11c.29 0 .57-.04.85-.11.28-.08.53-.2.75-.36.22-.17.4-.38.53-.62.14-.24.2-.53.2-.87 0-.59-.2-1.02-.6-1.29a3.22 3.22 0 0 0-1.62-.49 3.9 3.9 0 0 0-.32-.01l-.3-.01h-.76Zm6.81-5.07c.36-.09.74-.14 1.15-.17.41-.03.82-.04 1.22-.04.43 0 .86.04 1.3.12.45.09.86.24 1.22.47.36.22.66.53.88.92.24.4.35.9.35 1.5s-.1 1.1-.32 1.51c-.21.41-.5.75-.85 1-.36.26-.76.44-1.22.55-.46.12-.93.17-1.42.17H25.92l-.34-.03-.23-.02v3.72h-1.17v-9.7Zm2.4.8-.7.01c-.23 0-.4.03-.53.07v4.06c.04.02.12.03.22.04.1 0 .21 0 .32.02h.55c.32 0 .63-.03.94-.09.31-.06.6-.18.85-.33.25-.16.45-.39.6-.68.16-.29.24-.65.24-1.1 0-.38-.07-.7-.22-.95a1.59 1.59 0 0 0-.58-.62c-.23-.16-.5-.27-.8-.34-.3-.06-.6-.1-.9-.1Zm9.2 6.18h-3.61l-.98 2.72h-1.15l3.7-9.95h.54L38 22.5H36.8l-1.01-2.72Zm-3.24-1h2.89l-1.1-2.99-.34-1.48h-.02l-.35 1.51-1.08 2.96Zm6.77-6.08h5.32v1.04h-4.16v2.94a11.05 11.05 0 0 1 1.26-.13c.47 0 .93.05 1.36.14.42.08.8.23 1.13.45.33.21.58.5.77.88.2.36.3.83.3 1.39 0 .56-.1 1.04-.3 1.45a2.86 2.86 0 0 1-1.93 1.57 4.97 4.97 0 0 1-1.9.17 7.6 7.6 0 0 1-1.28-.1 3.5 3.5 0 0 1-.57-.1v-9.7Zm2.53 8.9c.3 0 .58-.04.85-.12.27-.09.5-.2.7-.37.2-.16.37-.37.48-.63.12-.25.18-.54.18-.88 0-.43-.07-.77-.2-1.03-.14-.27-.32-.48-.54-.63a1.93 1.93 0 0 0-.78-.3 4.78 4.78 0 0 0-1.2-.07l-.34.03c-.12 0-.22.02-.31.04l-.21.03v3.85a55.39 55.39 0 0 0 1 .08h.37Zm4.76-4c0-1.63.34-2.88 1.03-3.75a3.54 3.54 0 0 1 2.96-1.32c.69 0 1.28.12 1.79.37.5.24.92.58 1.24 1.03.34.44.59.97.75 1.6.16.61.23 1.3.23 2.07 0 1.63-.35 2.89-1.05 3.77-.69.86-1.68 1.3-2.96 1.3-.68 0-1.28-.12-1.78-.37-.5-.24-.91-.58-1.25-1.02a4.64 4.64 0 0 1-.73-1.6 8.48 8.48 0 0 1-.23-2.08Zm1.23 0c0 .54.05 1.05.15 1.54.11.49.28.91.5 1.29.23.36.52.66.86.88.36.21.77.32 1.25.32.86 0 1.55-.32 2.04-.98.5-.66.74-1.68.74-3.05 0-.53-.05-1.04-.17-1.53a3.8 3.8 0 0 0-.5-1.28 2.54 2.54 0 0 0-.87-.89 2.24 2.24 0 0 0-1.24-.33 2.4 2.4 0 0 0-2.03 1c-.49.65-.73 1.66-.73 3.03Zm14.4-3.86h-3.05v8.76h-1.16v-8.76h-3.06V12.7h7.27v1.04Zm5.16 6.04h-3.61l-.98 2.72h-1.15l3.7-9.95h.54l3.72 9.95H68.4l-1.01-2.72Zm-3.24-1h2.89l-1.1-2.99-.34-1.48h-.02l-.35 1.51-1.08 2.96ZM76.78 18h-4.7v4.49H70.9v-9.8h1.17v4.27h4.7V12.7h1.16v9.8h-1.16V18Zm3.13-.41c0-1.63.35-2.88 1.04-3.75a3.54 3.54 0 0 1 2.95-1.32c.7 0 1.3.12 1.8.37.5.24.92.58 1.24 1.03.34.44.59.97.74 1.6.16.61.24 1.3.24 2.07 0 1.63-.35 2.89-1.05 3.77-.69.86-1.68 1.3-2.97 1.3-.68 0-1.27-.12-1.77-.37-.5-.24-.91-.58-1.25-1.02a4.64 4.64 0 0 1-.73-1.6 8.48 8.48 0 0 1-.24-2.08Zm1.24 0c0 .54.05 1.05.15 1.54.11.49.28.91.5 1.29.23.36.51.66.86.88.35.21.77.32 1.24.32.87 0 1.55-.32 2.05-.98.5-.66.74-1.68.74-3.05 0-.53-.06-1.04-.17-1.53a3.8 3.8 0 0 0-.5-1.28 2.54 2.54 0 0 0-.87-.89 2.24 2.24 0 0 0-1.25-.33 2.4 2.4 0 0 0-2.03 1c-.48.65-.72 1.66-.72 3.03ZM111.15 2.25h-.1L97.5 3.59v23.63l13.55 7.66 13.45-7.66V3.6l-13.35-1.34Zm11.44 11.58-11.54-6.5v-.1h-.1l-.1-.1v.1l-11.44 6.6V5.22l11.54-1.15 11.64 1.15v8.6Zm-11.64-5.07 11.54 6.4-4.51 2.5-7.13-4.02v1.33l5.92 3.35-.9.48-5.02-2.87v1.34l3.81 2.2-.8.48-3.01-1.72v1.34l1.9 1.05-1.8 1.05-11.44-6.4 11.44-6.51ZM99.41 16.7l11.44 6.5v.96l-7.93-4.5V21l8.03 4.6v1.05l-8.03-4.5v1.34l8.03 4.6 8.13-4.7v-4.97l3.41-1.91v9.56l-11.54 6.6-11.54-6.5V16.7Z"/></svg>