<svg xmlns="http://www.w3.org/2000/svg">

    <symbol viewBox="0 0 282 214" id="logo-sedona">
      <path fill="#766458" d="m101.39 42.8-.13.13a3.83 3.83 0 0 1-2.76 1.34l1.72-3c1.1-1.89.06-3.72-1.66-3.72-1.41 0-2.51.55-3.56 2.38l-.92 1.59-.73 1.28-.13.13c-1.35 1.53-2.64 2.75-3.43 2.75-.43 0-.62-.3-.19-.98l3.93-6.85H95l.55-.85h-1.53l1.72-3H93.9l-1.72 3h-1.66l-.55.85h1.66l-3.69 6.36c-.8 1.35-.24 2.63 1.23 2.63 1.05 0 2.27-.8 3.38-1.9 0 2.33 3.25 2.82 5.21.31h.43c1.1 0 2.83-.67 3.75-1.77 0-.3-.31-.55-.55-.68Zm-3.93.13h-.06a1.1 1.1 0 0 0-.92 1.7v.07c-.86 1.47-2.95 1.22-1.9-.73l1.4-2.39.86-1.47c1.3-2.2 3.07-1.34 1.97.55l-1.35 2.27ZM126.85 42.8l-.12.13c-1.35 1.53-3 2.75-4.3 2.75-1.1 0-1.77-.74-.98-2.2l.19-.3c1.16.48 3.43.24 4.78-2.15l.25-.43c.98-1.7.06-2.93-1.47-2.93-1.48 0-2.64.8-3.44 2.14l-1.78 3.06-.12.12c-1.35 1.53-2.64 2.75-3.44 2.75-.43 0-.61-.3-.18-.98l2.64-4.65c.8-1.4.06-2.38-.99-2.38-.8 0-1.65.43-2.57 1.4l2.94-5.07h-1.84l-5.1 8.74-.12.13c-1.35 1.53-2.64 2.75-3.43 2.75-.43 0-.62-.3-.19-.98l3.93-6.85h1.47l.56-.86H112l1.72-3h-1.84l-1.72 3h-1.66l-.55.86h1.66l-3.68 6.36c-.8 1.35-.25 2.63 1.22 2.63.74 0 1.54-.37 2.34-.98l-.5.8h1.85l2.76-4.83c2.82-3.55 4.05-3.06 3.31-1.72l-2.4 4.16c-.79 1.35-.24 2.63 1.24 2.63 1.1 0 2.33-.85 3.43-1.96.06 1.17 1.05 1.96 2.52 1.96 2.08 0 4.17-1.59 5.64-3.36.07-.37-.24-.61-.49-.74Zm-3.5-2.56c1.05-1.84 2.95-1.53 1.85.36l-.25.43c-.86 1.47-2.09 1.47-2.76 1.22l1.17-2.01ZM193.81 42.8l-.12.13c-.68.8-1.48 1.46-2.21 2.01.61-1.77.43-4.4 1.6-6.78l-1.36-.74c-.73 1.04-2.39 3.43-4.1 5.38l-.13.13c-1.35 1.53-2.64 2.75-3.44 2.75-.43 0-.61-.3-.18-.98l3.92-6.85h-1.84l-3.25 5.69c-1.41 1.28-2.45 1.95-2.82 1.83-.43-.18 0-.85.24-1.28l3.56-6.24h-1.84l-2.88 4.95-.13.13a3.83 3.83 0 0 1-2.76 1.34l1.72-3c1.1-1.89.06-3.72-1.66-3.72-1.4 0-2.51.55-3.56 2.38l-.91 1.59-.74 1.28-.12.13c-1.36 1.53-3.01 2.75-4.3 2.75-1.1 0-1.78-.74-.98-2.2l.18-.3c1.17.48 3.44.24 4.79-2.15l.24-.43c.99-1.7.07-2.93-1.47-2.93-1.47 0-2.64.8-3.44 2.14l-1.78 3.06-.12.12c-1.53 1.77-2.82 2.87-4.3 3.48l4.12-7.03h-1.1c0-.73-.8-1.77-1.9-1.77-1 0-2.4.8-3.14 2.14l-1.78 3.06-.12.12c-1.35 1.53-2.64 2.75-3.44 2.75-.43 0-.61-.3-.18-.98l1.84-3.18c.61-1.1.3-1.77-.25-2.5l-1.04-1.23c-.25-.3-.25-.73.12-1.04l-.98-1.04c-1.04.92-1.1 1.96-.49 2.82l.18.18a45.9 45.9 0 0 1-3.13 4.1l-.12.12a3.83 3.83 0 0 1-2.76 1.34l1.72-3c1.1-1.89.06-3.72-1.66-3.72-1.41 0-2.52.55-3.56 2.38l-.92 1.6-.74 1.28-.12.12c-1.53 1.77-2.82 2.87-4.3 3.48l4.12-7.03h-1.1c0-.73-.8-1.77-1.91-1.77-.98 0-2.4.8-3.13 2.14l-2.58 4.46c-.8 1.35-.24 2.63 1.23 2.63.5 0 1.1-.24 1.78-.61l-.5.86c-2.45.73-4.04 1.77-4.04 3.11 0 1.78 2.7 2.14 4.05-.12l1.41-2.38a11.4 11.4 0 0 0 4.42-2.75c0 2.32 3.25 2.8 5.22.3h.42c1.11 0 2.83-.67 3.75-1.77.86-1.04 1.6-1.96 3.07-3.92l.24.31c.25.3.31.67.13 1.04l-1.97 3.36c-.8 1.35-.24 2.63 1.23 2.63.92 0 1.96-.6 2.94-1.47 0 .86.56 1.47 1.6 1.47.5 0 1.1-.24 1.78-.6l-.43.72c-2.45.74-4.05 1.78-4.05 3.12 0 1.78 2.7 2.14 4.05-.12l1.41-2.38a11.79 11.79 0 0 0 4.48-2.82c.06 1.17.98 1.96 2.52 1.96 1.47 0 3-.86 4.23-1.96-.06 2.39 3.26 2.88 5.22.37h.43a4.6 4.6 0 0 0 2.03-.55c-.5 1.28-.07 2.14.98 2.14.98 0 2.14-.92 3-1.77-.18.98.43 1.77 1.6 1.77 1.53 0 3.25-1.59 4.79-3.36 1.04-1.23 1.96-2.51 2.64-3.37-.74 1.9-.31 5.32-2.1 5.32-.6 0-.85-.67-.85-.67l-1.17.61s.31 1.47 2.03 1.47c.18 0 .3 0 .49-.06h.06c1.9-.25 3.75-1.71 5.1-3.3a.94.94 0 0 0-.68-.68Zm-26.33-2.56c1.05-1.84 2.95-1.53 1.84.36l-.24.43c-.86 1.47-2.09 1.47-2.77 1.22l1.17-2.01Zm-35.1 9.54c-.37.67-.98.6-.98.06 0-.5.42-1.04 1.84-1.6l-.86 1.54Zm.86-4.1c-.43 0-.62-.3-.19-.98l2.58-4.46c.98-1.72 2.95-1.29 2.03.36l-1.42 2.45c-1.1 1.77-2.27 2.63-3 2.63Zm11.29-2.75h-.06a1.1 1.1 0 0 0-.92 1.7v.07c-.86 1.47-2.95 1.22-1.9-.73l1.4-2.39.86-1.47c1.3-2.2 3.07-1.34 1.97.55l-1.35 2.27Zm11.54 6.85c-.37.67-.98.6-.98.06 0-.5.42-1.04 1.84-1.6l-.86 1.54Zm.86-4.1c-.43 0-.62-.3-.19-.98l2.58-4.46c.98-1.72 2.94-1.29 2.02.36l-1.4 2.45c-1.11 1.77-2.28 2.63-3.01 2.63Zm18.1-2.75h-.06a1.1 1.1 0 0 0-.92 1.7v.07c-.86 1.47-2.95 1.22-1.9-.73l1.4-2.39.87-1.47c1.29-2.2 3.07-1.34 1.96.55l-1.35 2.27ZM79.84 40.85H62.11v1.22h17.73v-1.22ZM219.16 40.85h-17.74v1.22h17.74v-1.22Z"/><path fill="#81B3D3" d="M100.03 0h4.73l-.74 27.46h-8.9L93.9 16.14l-1.23 11.32h-8.96L83.04 0h4.66l.37 22.75h.49l3-22.75h4.67l3 22.75h.5l.3-22.75ZM119.55 22.75v4.77h-12.83V0h12.83v4.7h-8.16v6.61h6.5v4.71h-6.5v6.67h8.16v.06ZM132.68 22.75v4.77h-11.23V0h4.67v22.75h6.56ZM142.63 17.37l4.72-1.1v8.31a2.92 2.92 0 0 1-2.88 2.88h-7.06a2.92 2.92 0 0 1-2.88-2.88V2.88A2.88 2.88 0 0 1 137.4 0h7.06a2.92 2.92 0 0 1 2.88 2.87v5.57l-4.72 1.1v-4.9h-3.38V22.7h3.38v-5.32ZM160.12 0A2.92 2.92 0 0 1 163 2.87v21.65a2.92 2.92 0 0 1-2.88 2.87h-7.06a2.92 2.92 0 0 1-2.88-2.87V2.87A2.88 2.88 0 0 1 153.06 0h7.06Zm-1.84 4.7h-3.38v18.05h3.38V4.7ZM178.34 0h4.67v27.46h-4.67V13.94l-1.9 6.97h-4.6L170 13.94v13.52h-4.67V0H170l4.17 13.27L178.34 0ZM198.17 22.75v4.77h-12.83V0h12.83v4.7H190v6.61h6.5v4.71h-6.5v6.67h8.16v.06Z"/><path fill="#fff" d="M27.19 96.37a12.52 12.52 0 0 0-7.92-3.06c-2.2 0-5.1 1.29-5.1 3.86 0 2.69 3.26 3.73 5.28 4.34l3.07.92c6.39 1.9 11.36 5.07 11.36 12.47 0 4.52-1.1 9.23-4.73 12.3-3.62 3.05-8.4 4.27-13 4.27A28.64 28.64 0 0 1 0 126.27l4.97-9.47c3 2.63 6.5 4.7 10.62 4.7 2.82 0 5.77-1.4 5.77-4.58 0-3.36-4.67-4.47-7.24-5.2-7.5-2.2-12.4-4.1-12.4-12.96 0-9.3 6.63-15.35 15.83-15.35 4.6 0 10.31 1.47 14.36 3.79l-4.72 9.17ZM56.22 94.66v7.64h13.44v10.1H56.22v7.88h14.23v10.1H44.31V84.62h26.14v10.1l-14.23-.07ZM79.3 84.63h16.93c12.77 0 23.32 10.03 23.32 22.87 0 12.84-10.62 22.87-23.32 22.87H79.29V84.63Zm11.96 35.65h2.7c7.12 0 13.2-3.91 13.2-12.78 0-8.2-5.4-12.78-13.08-12.78h-2.82v25.56ZM175.95 106.64c0 14.8-10.68 25.26-25.4 25.26-14.74 0-25.41-10.46-25.41-25.26 0-13.81 12.2-23.54 25.4-23.54s25.41 9.73 25.41 23.55Zm-38.42.07c0 7.89 5.83 13.63 12.95 13.63 7.12 0 12.95-5.75 12.95-13.63 0-6.3-5.83-12.11-12.95-12.11-7.06 0-12.95 5.8-12.95 12.1ZM182.27 84.63h11.97l21.85 28h.12v-28h11.97v45.74H216.2l-21.85-28.07h-.12v28.07h-11.97V84.63ZM249.84 122.42l-3.19 7.95h-12.64l17.67-45.74h13.01L282 130.37h-12.7l-3.01-7.95h-16.45Zm8.35-23.66h-.13l-4.9 14.55h9.94l-4.91-14.55ZM66.22 175.93c4.73-1.6 5.03-7.46.43-7.46-1.29 0-2.82.91-3.87 2.69l-6.26 10.82c-.3.49-.55.92-.92 1.34-1.6-2.2-1.16-5.5 1.1-6.97l-.91-1.16c-4.91 3.12-3.44 12.05 4.72 12.05 6.94 0 10.19-8.32 5.71-11.31Zm-5.77 9.53c-1.41 0-2.45-.3-3.37-.79.42-.49.8-1.04 1.16-1.65l3.93-6.79.61.06c5.46 1.17 3.32 9.18-2.33 9.18Zm2.52-10.57 1.9-3.24c1.72-2.94 3.87-1.23 2.7.97-.92 1.72-2.21 2.2-4.6 2.27Z"/><path fill="#fff" d="M85.92 183.45c-.37 1.34.37 2.5 1.9 2.5.92 0 2.09-.6 3.25-1.52.13.91.86 1.53 2.03 1.53 1.23 0 2.58-.86 3.93-2.08-.25 1.22.3 2.08 1.47 2.08 1.29 0 2.7-1.17 3.8-2.2-.24 1.22.5 2.2 1.97 2.2 1.9 0 4.11-2.08 6.08-4.28 0-.07-.07-.07-.07-.13 1.3-1.47 2.4-3.06 3.26-4.16-.92 2.39-.43 6.73-2.64 6.73-.8 0-1.1-.86-1.1-.86l-1.48.74s.43 1.9 2.58 1.9c.24 0 .43 0 .67-.07h.06c1.72-.24 3.38-1.28 4.85-2.57.06 1.53 1.23 2.63 3.13 2.63 2.64 0 5.28-2.07 7.18-4.28-.18-.3-.55-.67-.86-.8l-.18.2c-1.66 1.95-3.8 3.48-5.46 3.48-1.41 0-2.27-.92-1.23-2.75l.25-.43c1.47.6 4.3.3 6.07-2.7l.3-.54c1.23-2.14.07-3.73-1.83-3.73-1.9 0-3.38.97-4.36 2.69l-2.27 3.85h-.06l-.19.18c-.86.98-1.9 1.9-2.82 2.51.74-2.2.55-5.63 2.03-8.56l-1.72-.92c-.98 1.35-3.07 4.34-5.16 6.79l.06.06-.06.12c-1.66 1.96-3.31 3.49-4.36 3.49-.49 0-.8-.37-.24-1.29l4.97-8.68h-2.33l-4.11 7.22c-1.78 1.59-3.13 2.5-3.56 2.32-.56-.24 0-1.1.3-1.59l4.55-7.89h-2.34L98.5 181c-.06-.06-.12-.06-.18-.12l-.19.18c-1.65 1.96-3.31 3.49-4.35 3.49-.5 0-.8-.37-.25-1.29l3.74-6.54h-1.35c.06-.98-.92-2.32-2.45-2.32-1.23 0-3 .98-4 2.69l-2.32 4.03c-.13-.12-.25-.18-.37-.24l-.19.18c-1.65 1.96-3.8 3.49-5.46 3.49-1.4 0-2.27-.92-1.22-2.75l2.39-4.16c1.35-2.32 3.74-1.9 2.33.49l-.3.55h1.9l.3-.55c1.23-2.14.06-3.73-1.84-3.73-1.9 0-3.37.98-4.36 2.69L78 181.06c-.06-.06-.12-.06-.18-.12l-.19.19c-1.65 1.95-3.8 3.48-5.46 3.48-1.4 0-2.27-.92-1.22-2.75l.24-.43c1.47.61 4.3.3 6.08-2.69l.3-.55c1.23-2.14.06-3.73-1.84-3.73-1.9 0-3.37.98-4.36 2.69l-2.45 4.16c-1.47 2.44-.18 4.77 2.58 4.77 2.02 0 4.1-1.23 5.77-2.82-.07 1.6 1.16 2.82 3.13 2.82 1.96-.13 3.86-1.23 5.52-2.63Zm35.6-5.87c1.34-2.33 3.74-1.9 2.33.49l-.31.55c-1.1 1.9-2.64 1.83-3.5 1.53l1.47-2.57Zm-33.27 5.68 3.25-5.62c1.23-2.14 3.75-1.6 2.58.49l-1.84 3.18c-1.41 2.2-2.82 3.24-3.74 3.24-.5-.06-.8-.37-.25-1.29Zm-14.85-5.68c1.35-2.33 3.74-1.9 2.33.49l-.3.55c-1.11 1.9-2.64 1.83-3.5 1.53l1.47-2.57ZM152.32 185.95c2.64 0 5.28-2.07 7.18-4.28-.18-.3-.55-.67-.86-.8l-.18.2c-1.66 1.95-3.8 3.48-5.46 3.48-1.41 0-2.27-.92-1.23-2.75l.25-.43c1.47.6 4.3.3 6.07-2.7l.3-.54c1.24-2.14.07-3.73-1.83-3.73-1.9 0-3.38.97-4.36 2.69l-2.27 3.85s-.06 0-.06-.06l-.19.18c-1.65 1.96-3.31 3.49-4.35 3.49-.5 0-.8-.37-.25-1.29l3.38-5.87c.98-1.77.06-3.05-1.23-3.05-.98 0-2.09.55-3.25 1.77l3.74-6.42h-2.4L138.77 181c-.06-.06-.18-.12-.25-.18l-.18.18c-1.66 1.96-3.31 3.49-4.36 3.49-.49 0-.8-.37-.24-1.29l4.97-8.68h1.9l.68-1.1h-1.9l2.2-3.8h-2.33l-2.2 3.8h-2.1l-.67 1.1h2.15l-4.67 8.07c-.98 1.71-.3 3.3 1.6 3.3 1.16 0 2.4-.73 3.68-1.83l-.92 1.59h2.33l3.56-6.12c3.56-4.46 5.16-3.91 4.18-2.2l-3.01 5.26c-.98 1.71-.3 3.3 1.6 3.3 1.4 0 3-1.1 4.47-2.56 0 1.52 1.17 2.62 3.07 2.62Zm1.9-8.37c1.36-2.33 3.75-1.9 2.34.49l-.3.55c-1.11 1.9-2.65 1.83-3.5 1.53l1.47-2.57ZM222.9 180.88l-.18.18c-1.66 1.96-3.32 3.49-4.36 3.49-.5 0-.8-.37-.25-1.29l7.86-13.57h-2.33l-3.44 5.87a2.53 2.53 0 0 0-2.15-1.22c-1.23 0-3 .97-3.99 2.69l-2.27 3.91c-.06 0-.12-.06-.12-.06l-.18.18c-1.66 1.96-3.32 3.49-4.36 3.49-.5 0-.8-.37-.25-1.29l3.38-5.87c.98-1.77.06-3.05-1.23-3.05-.98 0-2.09.55-3.25 1.7l.86-1.52h-2.34l-3.74 6.42c-.06-.06-.12-.12-.25-.12l-.18.18c-1.66 1.96-3.31 3.49-4.36 3.49-.49 0-.8-.37-.24-1.29l3.74-6.54h-1.16c.06-.98-.93-2.32-2.46-2.32-1.23 0-3 .97-3.99 2.69l-2.27 3.85-.12.12c-1.66 1.96-3.32 3.49-4.36 3.49-.49 0-.8-.37-.24-1.29l2.33-4.03c.8-1.41.43-2.2-.3-3.12l-1.3-1.6c-.3-.42-.3-.9.13-1.34l-1.23-1.34c-1.35 1.16-1.41 2.5-.62 3.54l.19.25c-1.05 1.47-2.4 3.42-3.93 5.2l.18.18c-1.9 2.2-3.56 3.6-5.4 4.4l2.95-5.01h-2.27l-.25.43c-1.22 2.14-2.64 3.73-4.48 3.73-1.6 0-1.9-1.6-.49-3.98l.68-1.16c.43.06.86.12 1.35.12 8.28 0 12.27-11.06 4.97-11.06-1.29 0-2.83.91-3.87 2.69l-3.62 6.23a3.8 3.8 0 0 1-2.09-3.3c0-1.1.5-2.14 1.48-2.94l-.74-1.34a5.24 5.24 0 0 0-2.4 4.34c0 1.84 1.05 3.6 2.95 4.59l-.67 1.22c-1.66 2.81-1.35 5.93 1.96 5.93.98 0 1.84-.3 2.52-.73l-.61 1.04c-3.13.98-5.1 2.2-5.1 3.97 0 2.2 3.44 2.7 5.1-.18l1.77-3.06c2.4-.73 4.8-2.38 7.37-5.38-.06-.06-.06-.12-.12-.24 1.04-1.23 1.9-2.39 3.68-4.77l.3.36c.31.37.44.86.13 1.35l-2.46 4.28c-.98 1.71-.3 3.3 1.6 3.3 1.16 0 2.45-.73 3.68-1.83 0 1.04.68 1.83 2.03 1.83.92 0 2.08-.61 3.25-1.53.12.92.86 1.53 2.02 1.53 1.1 0 2.34-.67 3.5-1.71l-.86 1.47h2.34l3.56-6.18c3.55-4.46 5.15-3.85 4.1-2.14l-3 5.26c-.98 1.71-.3 3.3 1.6 3.3 1.22 0 2.57-.86 3.92-2.02-.12 1.16.62 2.02 2.03 2.02.92 0 2.09-.61 3.25-1.53.12.92.86 1.53 2.03 1.53 1.9 0 4.1-2.08 6.07-4.28-.24-.12-.67-.49-.98-.61Zm-47.8-8.68c.67-1.17 1.47-1.72 2.08-1.72 3.68 0 1.1 7.53-4.97 7.53h-.5l3.38-5.81Zm-4.98 17.49c-.49.85-1.29.73-1.29.12 0-.62.55-1.29 2.33-1.96l-1.04 1.84Zm24.37-8.44c-1.42 2.2-2.83 3.24-3.75 3.24-.49 0-.8-.37-.24-1.29l3.25-5.62c1.23-2.14 3.74-1.6 2.58.49l-1.84 3.18Zm22.52-.13c-1.41 2.33-2.82 3.37-3.8 3.37-.5 0-.8-.37-.25-1.29l3.25-5.62c1.23-2.14 3.74-1.6 2.58.49l-1.78 3.05ZM145.14 202.9l-.18.18c-1.66 1.95-3.31 3.48-4.36 3.48-.49 0-.8-.37-.24-1.28l3.37-5.87c.98-1.78.06-3.06-1.23-3.06-.98 0-2.08.55-3.25 1.71l.86-1.53h-2.33l-3.75 6.48c-.12-.06-.18-.12-.3-.18l-.19.18a4.79 4.79 0 0 1-3.5 1.72l2.22-3.8c1.4-2.44.12-4.7-2.1-4.7-1.77 0-3.18.73-4.53 3.06l-1.17 1.95-.98 1.71c-.06-.06-.12-.06-.19-.12l-.18.18c-1.9 2.2-3.56 3.61-5.4 4.4l6.38-10.88h-2.33l-4.11 7.16c-1.78 1.65-3.2 2.57-3.62 2.38-.56-.24 0-1.1.3-1.59l4.55-7.89h-2.34l-3.74 6.42c-.06-.06-.12-.06-.18-.12l-.19.19c-1.66 1.95-3.31 3.48-4.36 3.48-.49 0-.8-.37-.24-1.28l3.38-5.87c.98-1.78.06-3.06-1.23-3.06-.98 0-2.09.55-3.26 1.71l.86-1.53h-2.33l-3.74 6.42c-.06-.06-.13-.12-.25-.12l-.18.18c-1.66 1.96-3.32 3.49-4.36 3.49-.49 0-.8-.37-.24-1.28l3.74-6.55h-1.35c.06-.97-.92-2.32-2.46-2.32-1.22 0-3 .98-3.98 2.69l-2.4 4.16a5.66 5.66 0 0 0-.49-.3l-.18.18c-1.66 1.95-3.75 3.48-6.02 3.48-1.6 0-2.58-1.59-1.16-3.97l.67-1.16c.43.06.86.12 1.35.12 2.46 0 5.28-1.29 7.12-4.47.68-1.16.92-2.2.92-3.12 0-2.07-1.35-3.48-3.07-3.48-1.29 0-2.82.92-3.86 2.69l-3.63 6.24a3.8 3.8 0 0 1-2.08-3.3c0-1.1.49-2.15 1.47-2.94l-.74-1.34a5.23 5.23 0 0 0-2.39 4.34c0 1.83 1.04 3.6 2.95 4.58l-.68 1.22c-1.65 2.82-.67 5.94 2.64 5.94 2.58 0 4.54-1.16 6.14-2.7-.5 1.47.24 2.7 1.9 2.7.92 0 2.09-.62 3.25-1.53.13.91.86 1.53 2.03 1.53 1.1 0 2.33-.68 3.5-1.72l-.86 1.47h2.33l3.56-6.17c3.56-4.47 5.15-3.86 4.11-2.14l-3 5.25c-.99 1.72-.31 3.3 1.59 3.3 1.23 0 2.64-.85 3.99-2.07-.3 1.28.3 2.08 1.47 2.08 1.1 0 2.4-.92 3.44-1.9l-1.29 2.2c-3.13.92-5.16 2.2-5.16 3.98 0 2.2 3.44 2.69 5.1-.19l1.78-3.05c1.96-.61 3.86-1.84 5.89-3.8-.3 3.25 3.99 3.98 6.63.68h.49c.86 0 2.02-.3 3.07-.92l-1.54 2.7h2.33l3.56-6.19c3.56-4.46 5.16-3.85 4.12-2.13l-3.01 5.25c-.98 1.72-.3 3.3 1.6 3.3 1.9 0 4.1-2.07 6.07-4.28-.06-.18-.49-.55-.8-.67Zm-57.93-8.7c.67-1.15 1.47-1.7 2.09-1.7.85 0 1.28.55 1.28 1.4 0 2.14-2.64 6.06-6.26 6.06h-.49l3.38-5.75Zm8.22 9.06c-1.4 2.2-2.82 3.24-3.74 3.24-.5 0-.8-.37-.25-1.28l3.26-5.63c1.22-2.14 3.74-1.59 2.57.49l-1.84 3.18Zm17.68 8.44c-.5.85-1.3.73-1.3.12s.56-1.28 2.34-1.96l-1.04 1.84Zm15.7-8.69h-.12c-.73 0-1.34.62-1.34 1.41 0 .3.06.55.24.8v.06c-1.1 1.9-3.74 1.53-2.4-.92l1.79-3.06 1.1-1.9c1.66-2.75 3.87-1.64 2.46.74l-1.72 2.88ZM199.09 203.69a1.37 1.37 0 0 0-.86-.8l-.19.19c-.85.97-1.9 1.9-2.82 2.5.74-2.2.55-5.62 2.03-8.56l-1.72-.91c-.98 1.34-3.07 4.34-5.16 6.78l-.18.19c-1.66 1.95-3.31 3.48-4.36 3.48-.49 0-.98-.49-.98-1.59V204c1.66.19 3.38-.85 4.48-2.75l.61-1.1c2.15-3.73-1.35-4.95-3.74-2.75l3.31-5.75h-2.33l-6.63 11.5c-.12-.12-.3-.25-.43-.3l-.18.18c-1.66 1.95-3.8 3.48-5.46 3.48-1.41 0-2.27-.92-1.23-2.75l2.4-4.16c1.34-2.32 3.74-1.9 2.33.5l-.31.54h1.9l.3-.55c1.24-2.14.07-3.73-1.83-3.73-1.9 0-3.38.98-4.36 2.7l-2.27 3.9c-.06 0-.12-.06-.12-.06l-.19.19c-1.65 1.95-3.31 3.48-4.35 3.48-.5 0-.8-.36-.25-1.28l4.97-8.69h-2.33l-4.11 7.22c-1.78 1.6-3.13 2.5-3.56 2.32-.56-.24 0-1.1.3-1.59l4.55-7.88h-2.34l-4.54 7.76c-.49.43-1.04.86-1.47 1.23.74-2.2.55-5.63 2.02-8.57l-1.71-.91c-.99 1.34-6.32 8.44-8.47 10.88.18.3.55.55.86.8 1.35-1.53 5.77-7.22 6.56-8.32-.92 2.38-.43 6.73-2.64 6.73-.8 0-1.1-.86-1.1-.86l-1.47.73s.43 1.9 2.57 1.9c.25 0 .43 0 .68-.06h.06a8.05 8.05 0 0 0 3.44-1.47c0 .92.55 1.53 1.53 1.53 1.29 0 2.7-1.16 3.8-2.2-.24 1.22.5 2.2 1.97 2.2s3.07-1.16 4.6-2.7c0 1.54 1.23 2.7 3.13 2.7s3.75-1.04 5.4-2.45l-1.28 2.27h2.33l2.64-4.59v1.84c0 1.95.36 3 2.27 3 1.9 0 4.1-2.09 6.07-4.29 1.35-1.53 2.46-3.12 3.32-4.22-.92 2.39-.43 6.73-2.64 6.73-.8 0-1.1-.86-1.1-.86l-1.48.74s.43 1.9 2.58 1.9c.24 0 .43 0 .67-.07h.06c2.34-.43 4.73-2.32 6.45-4.34Zm-15.47-1.84.68-1.16c2.7-3.73 4.54-2.69 3.68-1.28l-1.1 1.9c-.68 1.22-2.7 2.07-3.26.54ZM199.03 205.28c-.74 0-1.35.61-1.35 1.34 0 .74.55 1.35 1.35 1.35.73 0 1.35-.55 1.35-1.35 0-.73-.62-1.34-1.35-1.34ZM199.15 204.36h2.33l7.3-12.66h-2.33l-7.3 12.66ZM49.22 169.75c0 .18-.06.37-.12.55-.06.18-.19.37-.31.49s-.3.25-.5.37c-.18.06-.42.12-.67.12-.3 0-.55-.06-.8-.18-.24-.13-.48-.25-.67-.43-.18-.19-.24-.37-.37-.61a3.08 3.08 0 0 1-.12-.8c0-.55.12-.98.3-1.47.2-.42.44-.85.8-1.16.13-.12.31-.3.5-.43.18-.12.36-.24.55-.3.18-.06.3-.19.43-.25.12-.06.18-.06.24-.12l.86 1.22c-.12.06-.3.13-.49.25-.18.06-.37.18-.55.3-.19.13-.3.31-.43.5-.12.18-.18.36-.18.6.42 0 .73.13 1.04.37.37.19.49.55.49.98Zm4.85 0c0 .18-.06.37-.12.55-.07.18-.19.37-.31.49s-.3.25-.5.37c-.18.06-.42.12-.67.12-.3 0-.55-.06-.8-.18-.24-.13-.49-.25-.67-.43-.12-.19-.25-.37-.37-.61a3.08 3.08 0 0 1-.12-.8c0-.55.12-.98.3-1.47.19-.42.43-.85.8-1.16.13-.12.31-.3.5-.43.18-.12.36-.24.55-.3.18-.06.3-.19.43-.25.12-.06.18-.06.24-.12l.86 1.22c-.12.06-.3.13-.49.25-.18.06-.37.18-.55.3-.19.13-.31.31-.43.5-.13.18-.19.36-.19.6.43 0 .74.13 1.05.37.3.19.49.55.49.98ZM216.76 205.77c0-.19.06-.37.13-.55.06-.19.18-.37.3-.5.13-.12.3-.24.5-.36.18-.06.42-.12.67-.12.3 0 .55.06.8.18.24.12.49.25.67.43.18.18.25.37.37.61.06.25.12.5.12.8 0 .55-.12.98-.3 1.46-.19.43-.43.86-.8 1.17a3.41 3.41 0 0 1-1.05.73c-.18.06-.3.18-.42.24-.13.06-.19.06-.25.13l-.86-1.23c.12-.06.3-.12.5-.24.18-.06.36-.18.54-.3.19-.13.31-.31.43-.5.13-.18.19-.36.19-.6-.43 0-.74-.13-1.05-.37-.3-.19-.49-.56-.49-.98Zm-4.78 0c0-.19.06-.37.12-.55.06-.19.18-.37.3-.5.13-.12.31-.24.5-.36.18-.06.43-.12.67-.12.3 0 .55.06.8.18s.49.25.67.43c.13.18.25.37.37.61.06.25.13.5.13.8 0 .55-.13.98-.31 1.46-.19.43-.43.86-.8 1.17-.12.12-.3.3-.49.42-.19.13-.37.25-.55.31-.19.06-.31.18-.43.24-.13.06-.19.06-.25.13l-.86-1.23c.19-.06.31-.12.5-.24.18-.06.36-.18.55-.3.18-.13.3-.31.43-.5.12-.18.18-.36.18-.6-.43 0-.74-.13-1.04-.37-.37-.19-.5-.56-.5-.98Z"/>
    </symbol>

    <symbol viewBox="0 0 48 48" id="icon-vk">
      <path fill="#81B3D2" d="M0 0h48v48H0z" />
      <g clip-path="url(#a)">
        <path fill="#fff" fill-rule="evenodd"
          d="M35.45 17.95c.17-.55 0-.95-.8-.95h-2.62c-.67 0-.98.35-1.14.73 0 0-1.34 3.2-3.23 5.27-.61.6-.89.8-1.22.8-.17 0-.42-.2-.42-.74v-5.11c0-.66-.18-.95-.74-.95h-4.13c-.42 0-.67.3-.67.6 0 .61.95.76 1.05 2.5v3.8c0 .84-.16.99-.5.99-.88 0-3.05-3.21-4.33-6.89-.25-.71-.5-1-1.17-1H12.9c-.75 0-.9.35-.9.73 0 .68.89 4.07 4.14 8.55 2.18 3.06 5.23 4.72 8.01 4.72 1.67 0 1.88-.37 1.88-1v-2.32c0-.73.16-.88.68-.88.4 0 1.06.2 2.62 1.67C31.11 30.22 31.4 31 32.41 31h2.62c.75 0 1.13-.37.91-1.1-.24-.72-1.09-1.77-2.21-3.02-.62-.7-1.53-1.47-1.81-1.86-.4-.49-.28-.7 0-1.14 0 0 3.2-4.43 3.53-5.93Z"
          clip-rule="evenodd" />
      </g>
      <defs>
        <clipPath id="a">
          <path fill="#fff" d="M12 12h24v24H12z" />
        </clipPath>
      </defs>
    </symbol>

    <symbol viewBox="0 0 48 48" id="icon-telegram">
      <path fill="#81B3D2" d="M0 0h48v48H0z" />
      <path fill="#fff"
        d="m34.44 16.62-3.17 14.95c-.24 1.05-.86 1.31-1.75.82l-4.83-3.56-2.33 2.24c-.25.26-.47.47-.97.47l.35-4.91 8.95-8.09c.39-.35-.09-.54-.6-.2l-11.07 6.97-4.76-1.49c-1.04-.32-1.05-1.03.22-1.53l18.62-7.18c.87-.32 1.62.2 1.34 1.51Z" />
    </symbol>

    <symbol viewBox="0 0 48 48" id="icon-youtube">
      <path fill="#81B3D2" d="M0 0h48v48H0z" />
      <path fill="#fff"
        d="M31.18 17H16.81c-1.5 0-2.81 1.3-2.81 2.8v8.3c0 1.6 1.3 2.9 2.81 2.9h14.37A2.8 2.8 0 0 0 34 28.2v-8.4c.1-1.5-1.2-2.8-2.8-2.8ZM21.03 27.4v-6.8l6.84 3.4-6.84 3.4Z" />
    </symbol>

    <symbol viewBox="0 0 129 36" id="icon-logo">
      <path fill="#000"
        d="M1.49 12.8c.35-.09.74-.14 1.15-.17.4-.03.81-.04 1.21-.04.43 0 .87.04 1.3.12.45.09.86.24 1.22.47.37.22.66.53.89.92.23.4.35.9.35 1.5s-.11 1.1-.33 1.51c-.21.41-.5.75-.85 1-.35.26-.76.44-1.22.55-.45.12-.93.17-1.41.17H3.22l-.33-.03-.24-.02v3.72H1.5v-9.7Zm2.4.8-.7.01c-.23 0-.4.03-.54.07v4.06c.05.02.12.03.22.04.1 0 .21 0 .33.02h.54c.32 0 .63-.03.94-.09.32-.06.6-.18.85-.33.26-.16.46-.39.6-.68.17-.29.24-.65.24-1.1 0-.38-.07-.7-.22-.95a1.59 1.59 0 0 0-.57-.62c-.24-.16-.5-.27-.8-.34-.3-.06-.6-.1-.9-.1Zm9.2 6.18H9.46l-.98 2.72H7.34l3.71-9.95h.53l3.73 9.95h-1.22l-1-2.72Zm-3.24-1h2.88l-1.09-2.99-.35-1.48h-.01l-.35 1.51-1.08 2.96Zm7.52-.91v-.98h.52c.13 0 .25 0 .37-.02l.37-.01.29-.04c.24-.04.47-.1.69-.19.21-.09.4-.2.56-.35.15-.14.28-.3.37-.49a1.71 1.71 0 0 0-.01-1.39 1.53 1.53 0 0 0-1.06-.76 3.23 3.23 0 0 0-.76-.07 6.35 6.35 0 0 0-2.14.36l-.31-.92a7.3 7.3 0 0 1 2.65-.48c.37 0 .73.04 1.09.13.36.07.68.2.96.39.3.18.52.42.69.74.18.31.27.7.27 1.15 0 .47-.16.91-.47 1.34-.3.42-.77.73-1.38.91v.06c.66.1 1.18.34 1.57.74.38.4.57.94.57 1.61a2.84 2.84 0 0 1-1.15 2.34c-.33.25-.73.44-1.17.56-.44.11-.9.17-1.35.17-.61 0-1.12-.04-1.52-.11-.4-.07-.72-.15-.98-.26l.29-1.05c.21.1.51.2.9.27s.86.11 1.41.11c.29 0 .57-.04.85-.11.28-.08.53-.2.75-.36.22-.17.4-.38.53-.62.14-.24.2-.53.2-.87 0-.59-.2-1.02-.6-1.29a3.22 3.22 0 0 0-1.62-.49 3.9 3.9 0 0 0-.32-.01l-.3-.01h-.76Zm6.81-5.07c.36-.09.74-.14 1.15-.17.41-.03.82-.04 1.22-.04.43 0 .86.04 1.3.12.45.09.86.24 1.22.47.36.22.66.53.88.92.24.4.35.9.35 1.5s-.1 1.1-.32 1.51c-.21.41-.5.75-.85 1-.36.26-.76.44-1.22.55-.46.12-.93.17-1.42.17H25.92l-.34-.03-.23-.02v3.72h-1.17v-9.7Zm2.4.8-.7.01c-.23 0-.4.03-.53.07v4.06c.04.02.12.03.22.04.1 0 .21 0 .32.02h.55c.32 0 .63-.03.94-.09.31-.06.6-.18.85-.33.25-.16.45-.39.6-.68.16-.29.24-.65.24-1.1 0-.38-.07-.7-.22-.95a1.59 1.59 0 0 0-.58-.62c-.23-.16-.5-.27-.8-.34-.3-.06-.6-.1-.9-.1Zm9.2 6.18h-3.61l-.98 2.72h-1.15l3.7-9.95h.54L38 22.5H36.8l-1.01-2.72Zm-3.24-1h2.89l-1.1-2.99-.34-1.48h-.02l-.35 1.51-1.08 2.96Zm6.77-6.08h5.32v1.04h-4.16v2.94a11.05 11.05 0 0 1 1.26-.13c.47 0 .93.05 1.36.14.42.08.8.23 1.13.45.33.21.58.5.77.88.2.36.3.83.3 1.39 0 .56-.1 1.04-.3 1.45a2.86 2.86 0 0 1-1.93 1.57 4.97 4.97 0 0 1-1.9.17 7.6 7.6 0 0 1-1.28-.1 3.5 3.5 0 0 1-.57-.1v-9.7Zm2.53 8.9c.3 0 .58-.04.85-.12.27-.09.5-.2.7-.37.2-.16.37-.37.48-.63.12-.25.18-.54.18-.88 0-.43-.07-.77-.2-1.03-.14-.27-.32-.48-.54-.63a1.93 1.93 0 0 0-.78-.3 4.78 4.78 0 0 0-1.2-.07l-.34.03c-.12 0-.22.02-.31.04l-.21.03v3.85a55.39 55.39 0 0 0 1 .08h.37Zm4.76-4c0-1.63.34-2.88 1.03-3.75a3.54 3.54 0 0 1 2.96-1.32c.69 0 1.28.12 1.79.37.5.24.92.58 1.24 1.03.34.44.59.97.75 1.6.16.61.23 1.3.23 2.07 0 1.63-.35 2.89-1.05 3.77-.69.86-1.68 1.3-2.96 1.3-.68 0-1.28-.12-1.78-.37-.5-.24-.91-.58-1.25-1.02a4.64 4.64 0 0 1-.73-1.6 8.48 8.48 0 0 1-.23-2.08Zm1.23 0c0 .54.05 1.05.15 1.54.11.49.28.91.5 1.29.23.36.52.66.86.88.36.21.77.32 1.25.32.86 0 1.55-.32 2.04-.98.5-.66.74-1.68.74-3.05 0-.53-.05-1.04-.17-1.53a3.8 3.8 0 0 0-.5-1.28 2.54 2.54 0 0 0-.87-.89 2.24 2.24 0 0 0-1.24-.33 2.4 2.4 0 0 0-2.03 1c-.49.65-.73 1.66-.73 3.03Zm14.4-3.86h-3.05v8.76h-1.16v-8.76h-3.06V12.7h7.27v1.04Zm5.16 6.04h-3.61l-.98 2.72h-1.15l3.7-9.95h.54l3.72 9.95H68.4l-1.01-2.72Zm-3.24-1h2.89l-1.1-2.99-.34-1.48h-.02l-.35 1.51-1.08 2.96ZM76.78 18h-4.7v4.49H70.9v-9.8h1.17v4.27h4.7V12.7h1.16v9.8h-1.16V18Zm3.13-.41c0-1.63.35-2.88 1.04-3.75a3.54 3.54 0 0 1 2.95-1.32c.7 0 1.3.12 1.8.37.5.24.92.58 1.24 1.03.34.44.59.97.74 1.6.16.61.24 1.3.24 2.07 0 1.63-.35 2.89-1.05 3.77-.69.86-1.68 1.3-2.97 1.3-.68 0-1.27-.12-1.77-.37-.5-.24-.91-.58-1.25-1.02a4.64 4.64 0 0 1-.73-1.6 8.48 8.48 0 0 1-.24-2.08Zm1.24 0c0 .54.05 1.05.15 1.54.11.49.28.91.5 1.29.23.36.51.66.86.88.35.21.77.32 1.24.32.87 0 1.55-.32 2.05-.98.5-.66.74-1.68.74-3.05 0-.53-.06-1.04-.17-1.53a3.8 3.8 0 0 0-.5-1.28 2.54 2.54 0 0 0-.87-.89 2.24 2.24 0 0 0-1.25-.33 2.4 2.4 0 0 0-2.03 1c-.48.65-.72 1.66-.72 3.03ZM111.15 2.25h-.1L97.5 3.59v23.63l13.55 7.66 13.45-7.66V3.6l-13.35-1.34Zm11.44 11.58-11.54-6.5v-.1h-.1l-.1-.1v.1l-11.44 6.6V5.22l11.54-1.15 11.64 1.15v8.6Zm-11.64-5.07 11.54 6.4-4.51 2.5-7.13-4.02v1.33l5.92 3.35-.9.48-5.02-2.87v1.34l3.81 2.2-.8.48-3.01-1.72v1.34l1.9 1.05-1.8 1.05-11.44-6.4 11.44-6.51ZM99.41 16.7l11.44 6.5v.96l-7.93-4.5V21l8.03 4.6v1.05l-8.03-4.5v1.34l8.03 4.6 8.13-4.7v-4.97l3.41-1.91v9.56l-11.54 6.6-11.54-6.5V16.7Z" />
    </symbol>

  </svg>
